# This file uses centimeters as units for non-parametric coordinates.

mtllib ground.mtl
g default
v -7.500000 0.050000 7.500000
v 7.500000 0.050000 7.500000
v -7.500000 0.050000 -7.500000
v 7.500000 0.050000 -7.500000
vt 0.015133 0.015132
vt 5.684867 0.015132
vt 0.015133 5.684867
vt 5.684867 5.684867
vn 0.000000 1.000000 0.000000
vn 0.000000 1.000000 0.000000
vn 0.000000 1.000000 0.000000
vn 0.000000 1.000000 0.000000
s 1
g pCube1
usemtl initialShadingGroup
f 1/1/1 2/2/2 3/3/3
f 3/3/3 2/2/2 4/4/4
